<svg width="927" height="237" viewBox="0 0 927 237" fill="none" xmlns="http://www.w3.org/2000/svg">
<path d="M80.55 54.8242C142.883 54.8242 32.9835 58.3954 95.4285 58.1219C139.296 48.5789 183.085 45.6982 229.335 44.5646C259.934 43.8145 292.211 42.2522 322.535 39.16C331.001 38.2967 346.913 38.5761 354.398 35.8622C359.238 34.1071 364.915 35.8515 369.838 34.1218C376.412 31.8113 385.32 31.1013 392.717 30.4576C423.259 27.8 458.032 29.2813 488.584 30.9157C529.656 33.1127 572.158 34.3819 613.367 35.0378C628.176 35.2735 644.349 37.6597 658.985 39.2516C677.5 41.2655 695.623 40.9118 714.147 42.3661C738.392 44.2696 764.005 44.9856 787.697 48.9615C802.61 51.4642 817.685 55.1293 833.034 56.3814C841.032 57.0338 849.115 58.9581 856.896 60.5036C861.694 61.4566 866.463 64.3634 871.073 64.7174C888.686 66.0697 889.438 95.7518 892.548 103.466C895.862 111.685 894.973 121.6 896.899 130.122C899.529 141.756 897.363 152.007 891.285 162.916C878.701 185.501 841.585 198.672 808.471 206.153C783.632 211.764 756.158 211.911 732.114 219.344C716.422 224.195 688.234 226.306 671.477 226.306C617.399 226.306 562.393 228.603 508.095 229.512C426.897 230.871 344.513 229.567 263.864 223.375C227.727 220.6 192.28 219.71 155.925 219.71C132.726 219.71 107.681 219.259 84.7609 217.237C76.0395 216.468 72.3081 215.83 65.1102 213.481C52.0611 209.223 16.6579 202.238 14.5796 190.031C13.4589 183.448 9.52653 177.883 9.52653 170.886C9.52653 160.306 7 150.157 7 139.649C7 122.989 11.5482 109.4 17.3868 93.206C21.3676 82.1648 25.5724 75.2905 40.4063 69.2975C53.8961 63.8476 63.2337 54.8242 80.55 54.8242Z" fill="#5C6BC4"/>
<path d="M95.4285 58.1219C61.9699 58.1219 128.947 57.9751 95.4285 58.1219ZM95.4285 58.1219C32.9835 58.3954 142.883 54.8242 80.5501 54.8242C63.2337 54.8242 53.8961 63.8476 40.4063 69.2975C25.5724 75.2905 21.3676 82.1648 17.3868 93.206C11.5482 109.4 7 122.989 7 139.649C7 150.157 9.52653 160.306 9.52653 170.886C9.52653 177.883 13.4589 183.448 14.5796 190.031C16.6579 202.238 52.0611 209.223 65.1102 213.481C72.3081 215.83 76.0395 216.468 84.7609 217.237C107.681 219.259 132.726 219.71 155.925 219.71C192.28 219.71 227.727 220.6 263.864 223.375C344.513 229.567 426.897 230.871 508.095 229.512C562.393 228.603 617.399 226.306 671.477 226.306C688.234 226.306 716.422 224.195 732.114 219.344C756.158 211.911 783.632 211.764 808.471 206.153C841.585 198.672 878.701 185.501 891.285 162.916C897.363 152.007 899.529 141.756 896.899 130.122C894.973 121.6 895.862 111.685 892.548 103.466C889.438 95.7518 888.686 66.0697 871.073 64.7174C866.463 64.3634 861.694 61.4566 856.896 60.5036C849.115 58.9581 841.032 57.0338 833.034 56.3814C817.685 55.1293 802.61 51.4642 787.697 48.9616C764.005 44.9856 738.392 44.2696 714.147 42.3661C695.623 40.9118 677.5 41.2655 658.985 39.2516C644.349 37.6597 628.176 35.2735 613.367 35.0378C572.158 34.3819 529.656 33.1127 488.584 30.9157C458.032 29.2813 423.259 27.8 392.717 30.4576C385.32 31.1013 376.412 31.8113 369.838 34.1218C364.915 35.8515 359.238 34.1071 354.398 35.8622C346.913 38.5761 331.001 38.2967 322.535 39.16C292.211 42.2522 259.934 43.8145 229.335 44.5646C183.085 45.6982 139.296 48.5789 95.4285 58.1219Z" stroke="#394275" stroke-width="13" stroke-linecap="round"/>
<path d="M102.55 32.8242C164.883 32.8242 54.9835 36.3954 117.428 36.1219C161.296 26.5789 205.085 23.6982 251.335 22.5646C281.934 21.8145 314.211 20.2522 344.535 17.16C353.001 16.2967 368.913 16.5761 376.398 13.8622C381.238 12.1071 386.915 13.8515 391.838 12.1218C398.412 9.81131 407.32 9.10131 414.717 8.45764C445.259 5.80001 480.032 7.2813 510.584 8.91566C551.656 11.1127 594.158 12.3819 635.367 13.0378C650.176 13.2735 666.349 15.6597 680.985 17.2516C699.5 19.2655 717.623 18.9118 736.147 20.3661C760.392 22.2696 786.005 22.9856 809.697 26.9615C824.61 29.4642 839.685 33.1293 855.034 34.3814C863.032 35.0338 871.115 36.9581 878.896 38.5036C883.694 39.4566 888.463 42.3634 893.073 42.7174C910.686 44.0697 911.438 73.7518 914.548 81.4656C917.862 89.6846 916.973 99.5999 918.899 108.122C921.529 119.756 919.363 130.007 913.285 140.916C900.701 163.501 863.585 176.672 830.471 184.153C805.632 189.764 778.158 189.911 754.114 197.344C738.422 202.195 710.234 204.306 693.477 204.306C639.399 204.306 584.393 206.603 530.095 207.512C448.897 208.871 366.513 207.567 285.864 201.375C249.727 198.6 214.28 197.71 177.925 197.71C154.726 197.71 129.681 197.259 106.761 195.237C98.0395 194.468 94.3081 193.83 87.1102 191.481C74.0611 187.223 38.6579 180.238 36.5796 168.031C35.4589 161.448 31.5265 155.883 31.5265 148.886C31.5265 138.306 29 128.157 29 117.649C29 100.989 33.5482 87.4003 39.3868 71.206C43.3676 60.1648 47.5724 53.2905 62.4063 47.2975C75.8961 41.8476 85.2337 32.8242 102.55 32.8242Z" fill="#D6DAF0"/>
<path d="M117.428 36.1219C83.9699 36.1219 150.947 35.9751 117.428 36.1219ZM117.428 36.1219C54.9835 36.3954 164.883 32.8242 102.55 32.8242C85.2337 32.8242 75.8961 41.8476 62.4063 47.2975C47.5724 53.2905 43.3676 60.1648 39.3868 71.206C33.5482 87.4003 29 100.989 29 117.649C29 128.157 31.5265 138.306 31.5265 148.886C31.5265 155.883 35.4589 161.448 36.5796 168.031C38.6579 180.238 74.0611 187.223 87.1102 191.481C94.3081 193.83 98.0395 194.468 106.761 195.237C129.681 197.259 154.726 197.71 177.925 197.71C214.28 197.71 249.727 198.6 285.864 201.375C366.513 207.567 448.897 208.871 530.095 207.512C584.393 206.603 639.399 204.306 693.477 204.306C710.234 204.306 738.422 202.195 754.114 197.344C778.158 189.911 805.632 189.764 830.471 184.153C863.585 176.672 900.701 163.501 913.285 140.916C919.363 130.007 921.529 119.756 918.899 108.122C916.973 99.5999 917.862 89.6846 914.548 81.4656C911.438 73.7518 910.686 44.0697 893.073 42.7174C888.463 42.3634 883.694 39.4566 878.896 38.5036C871.115 36.9581 863.032 35.0338 855.034 34.3814C839.685 33.1293 824.61 29.4642 809.697 26.9615C786.005 22.9856 760.392 22.2696 736.147 20.3661C717.623 18.9118 699.5 19.2655 680.985 17.2516C666.349 15.6597 650.176 13.2735 635.367 13.0378C594.158 12.3819 551.656 11.1127 510.584 8.91566C480.032 7.2813 445.259 5.80001 414.717 8.45764C407.32 9.10131 398.412 9.81131 391.838 12.1218C386.915 13.8515 381.238 12.1071 376.398 13.8622C368.913 16.5761 353.001 16.2967 344.535 17.16C314.211 20.2522 281.934 21.8145 251.335 22.5646C205.085 23.6982 161.296 26.5789 117.428 36.1219Z" stroke="#394275" stroke-width="13" stroke-linecap="round"/>
<path d="M90.043 76.0078C91.9134 84.0741 92.8516 91.6458 92.8516 99.8812" stroke="#394275" stroke-width="5" stroke-linecap="round"/>
<path d="M76 80.2213C83.7504 77.5256 93.1489 78.817 101.278 78.817" stroke="#394275" stroke-width="5" stroke-linecap="round"/>
<path d="M108.301 81.625V101.285" stroke="#394275" stroke-width="5" stroke-linecap="round"/>
<path d="M112.514 78.8164C119.228 82.2695 125.708 86.1711 132.174 90.051" stroke="#394275" stroke-width="5" stroke-linecap="round"/>
<path d="M102.684 94.2618C110.493 90.3574 120.753 89.7212 129.366 88.6445" stroke="#394275" stroke-width="5" stroke-linecap="round"/>
<path d="M161.664 78.8164C156.077 83.9735 152.823 90.4662 147.621 95.6682" stroke="#394275" stroke-width="5" stroke-linecap="round"/>
<path d="M144.812 83.0273C150.984 88.7877 159.502 93.2515 164.473 99.8792" stroke="#394275" stroke-width="5" stroke-linecap="round"/>
<path d="M768.33 73.1986C768.33 78.798 773.865 85.9823 778.862 88.334C789.363 93.2757 790.621 75.8706 785.962 70.546C780.732 64.569 766.926 70.0411 766.926 77.4115" stroke="#394275" stroke-width="5" stroke-linecap="round"/>
<path d="M99.8733 133.585C89.5626 132.439 87.9581 138.292 94.9582 146.848C98.2889 150.918 100.106 156.887 94.9582 160.891C91.4478 163.621 88.4303 160.162 85.8301 158.862" stroke="#394275" stroke-width="5" stroke-linecap="round"/>
<path d="M111.109 136.395C111.109 141.004 109.383 161.742 119.535 156.367C122.726 154.678 122.944 143.823 123.748 140.607" stroke="#394275" stroke-width="5" stroke-linecap="round"/>
<path d="M136.386 143.416C133.232 150.908 133.578 160.236 133.578 168.226C133.578 178.182 133.747 147.755 137.791 138.657C138.914 136.128 143.279 138.298 143.408 140.608C143.639 144.766 141.315 147.258 139.195 150.438" stroke="#394275" stroke-width="5" stroke-linecap="round"/>
<path d="M149.024 142.009C150.961 150.964 150.429 160.124 150.429 169.237C150.429 179.486 146.153 147.457 151.131 138.498C153.83 133.64 163.715 142.765 156.046 150.435" stroke="#394275" stroke-width="5" stroke-linecap="round"/>
<path d="M171.494 127.969C171.494 136.238 173.979 150.006 171.494 157.459" stroke="#394275" stroke-width="5" stroke-linecap="round"/>
<path d="M181.324 147.628C181.324 150.101 181.48 151.684 182.729 153.87C184.905 157.679 190.029 145.411 190.842 144.508C194.485 140.46 190.158 155.378 189.828 160.813C189.618 164.275 189.722 165.942 188.346 168.693" stroke="#394275" stroke-width="5" stroke-linecap="round"/>
<path d="M764.117 142.01C765.631 135.956 771.139 133.269 771.139 126.562C771.139 114.86 771.139 149.968 771.139 161.67" stroke="#394275" stroke-width="5" stroke-linecap="round"/>
<path d="M791.098 124.223C793.262 134.505 792.908 145.418 792.908 155.9" stroke="#394275" stroke-width="5" stroke-linecap="round"/>
<path d="M792.002 128.75C796.16 124.418 797.666 123.039 803.768 126.236C806.801 127.825 806.967 133.353 806.433 136.292C806.25 137.297 800.58 139.512 800.751 139.56C803.301 140.289 807.782 136.912 809.902 140.516C817.554 153.523 802.061 152.23 794.717 155.902" stroke="#394275" stroke-width="5" stroke-linecap="round"/>
</svg>
