<svg width="1920" height="865" viewBox="0 0 1920 865" fill="none" xmlns="http://www.w3.org/2000/svg">
<g clip-path="url(#clip0_70_1605)">
<path d="M1770 496.5L2183 83.5" stroke="white" stroke-width="29"/>
<path d="M1068 519.5L1481 106.5" stroke="white" stroke-width="29"/>
<path d="M1867 481L2829 -481" stroke="white" stroke-width="17"/>
<path d="M1165 504L2127 -458" stroke="white" stroke-width="17"/>
<path d="M559 504L1521 -458" stroke="white" stroke-width="17"/>
<path d="M1702 771L2664 -191" stroke="white" stroke-width="29"/>
<path d="M1000 794L1962 -168" stroke="white" stroke-width="29"/>
<path d="M394 794L1356 -168" stroke="white" stroke-width="29"/>
<path d="M1313 679L2275 -168" stroke="white" stroke-width="17"/>
<path d="M707 679L1669 -168" stroke="white" stroke-width="17"/>
<path d="M1767 563L2729 -284" stroke="white" stroke-width="14"/>
<path d="M1161 563L2123 -284" stroke="white" stroke-width="14"/>
<path d="M1548 447L2510 -400" stroke="white" stroke-width="14"/>
<path d="M1452 447L2414 -400" stroke="white" stroke-width="29"/>
<path d="M846 447L1808 -400" stroke="white" stroke-width="29"/>
</g>
<defs>
<clipPath id="clip0_70_1605">
<rect width="1920" height="865" fill="white"/>
</clipPath>
</defs>
</svg>
