<svg width="113" height="112" viewBox="0 0 113 112" fill="none" xmlns="http://www.w3.org/2000/svg">
<circle cx="55" cy="55" r="52.5" stroke="white" stroke-width="5"/>
<path d="M13 41C14.8333 34.0692 22.6 18.566 39 12" stroke="white" stroke-width="3"/>
<path d="M53.8924 106.387L49.0673 99.6922C48.4687 98.8615 49.357 97.7747 50.2902 98.1961L68.1925 106.281C69.1511 106.713 70.0424 105.563 69.3837 104.743L58.9865 91.7994C58.3084 90.9553 59.2684 89.7859 60.2285 90.2865L80.6364 100.928C81.6683 101.466 82.6318 100.106 81.7818 99.3112L64.5431 83.1914C63.7001 82.4031 64.6418 81.0501 65.6738 81.5669L88.485 92.9895C89.4409 93.4682 90.3801 92.3148 89.7177 91.4757L80.8699 80.2685C80.1817 79.3969 81.2147 78.2207 82.1679 78.7905L94.2571 86.0177C95.1517 86.5525 96.1654 85.5334 95.6258 84.6417L90.257 75.7692C89.792 75.0007 90.4974 74.0563 91.3663 74.2843L102.562 77.221C103.617 77.4977 104.29 76.1262 103.425 75.4612L91.5805 66.3471C90.6955 65.6662 91.4229 64.267 92.4887 64.6001L103.997 68.1976C105.014 68.5156 105.757 67.2341 104.975 66.5097L96.4548 58.6128C95.7522 57.9616 96.2789 56.7905 97.2322 56.8841L105.651 57.7104C106.667 57.8102 107.162 56.5009 106.333 55.9038L89.919 44.081C88.9823 43.4064 89.7445 41.9443 90.834 42.3258L105.143 47.3368C106.189 47.7032 106.966 46.3485 106.121 45.6309L89.3602 31.3927C88.5243 30.6826 89.276 29.3392 90.3184 29.68L102 33.5" stroke="white" stroke-width="2"/>
<path d="M69.9522 27.5H77.9255L60.5055 47.4117L81 74.5015H64.9537L52.387 58.0695L38.0047 74.5015H30.027L48.6603 53.2032L29 27.5022H45.4537L56.8135 42.5215L69.9522 27.5ZM67.155 69.7305H71.5728L43.053 32.0218H38.3123L67.155 69.7305Z" fill="white"/>
</svg>
