<svg width="113" height="112" viewBox="0 0 113 112" fill="none" xmlns="http://www.w3.org/2000/svg">
<circle cx="55" cy="55" r="52.5" stroke="white" stroke-width="5"/>
<path d="M13 41C14.8333 34.0692 22.6 18.566 39 12" stroke="white" stroke-width="3"/>
<path d="M53.8924 106.387L49.0673 99.6922C48.4687 98.8615 49.357 97.7747 50.2902 98.1961L68.1925 106.281C69.1511 106.713 70.0424 105.563 69.3837 104.743L58.9865 91.7994C58.3084 90.9553 59.2684 89.7859 60.2285 90.2865L80.6364 100.928C81.6683 101.466 82.6318 100.106 81.7818 99.3112L64.5431 83.1914C63.7001 82.4031 64.6418 81.0501 65.6738 81.5669L88.485 92.9895C89.4409 93.4682 90.3801 92.3148 89.7177 91.4757L80.8699 80.2685C80.1817 79.3969 81.2147 78.2207 82.1679 78.7905L94.2571 86.0177C95.1517 86.5525 96.1654 85.5334 95.6258 84.6417L90.257 75.7692C89.792 75.0007 90.4974 74.0563 91.3663 74.2843L102.562 77.221C103.617 77.4977 104.29 76.1262 103.425 75.4612L91.5805 66.3471C90.6955 65.6662 91.4229 64.267 92.4887 64.6001L103.997 68.1976C105.014 68.5156 105.757 67.2341 104.975 66.5097L96.4548 58.6128C95.7522 57.9616 96.2789 56.7905 97.2322 56.8841L105.651 57.7104C106.667 57.8102 107.162 56.5009 106.333 55.9038L89.919 44.081C88.9823 43.4064 89.7445 41.9443 90.834 42.3258L105.143 47.3368C106.189 47.7032 106.966 46.3485 106.121 45.6309L89.3602 31.3927C88.5243 30.6826 89.276 29.3392 90.3184 29.68L102 33.5" stroke="white" stroke-width="2"/>
<path fill-rule="evenodd" clip-rule="evenodd" d="M34.4141 54.467C34.526 54.5049 34.6411 54.5323 34.758 54.549C35.4951 56.3112 36.228 58.0753 36.9569 59.8411C38.2673 63.0185 39.5882 66.2911 39.8774 67.2321C40.2395 68.3899 40.6199 69.1777 41.0368 69.7169C41.253 69.9918 41.5005 70.235 41.7923 70.4201C41.9443 70.5166 42.107 70.5947 42.2769 70.6527C43.1106 70.9699 43.8713 70.8377 44.3481 70.6765C44.6279 70.5796 44.8941 70.4463 45.1401 70.28L45.1532 70.2747L52.5158 65.617L61.0221 72.2308C61.1471 72.3286 61.2826 72.4106 61.4285 72.4767C62.4498 72.926 63.4398 73.0846 64.3725 72.9578C65.3 72.8256 66.0373 72.4317 66.587 71.985C67.2182 71.4688 67.7215 70.8097 68.0564 70.0606L68.0799 70.0024L68.0877 69.9813L68.0929 69.9707V69.9654L68.0955 69.9628C68.1408 69.8491 68.1757 69.7314 68.1997 69.6112L75.9635 29.8938C75.988 29.7667 76.0003 29.6374 76 29.5078C76 28.3447 75.5675 27.2371 74.5541 26.5684C73.6839 25.9947 72.7173 25.9683 72.1051 26.0159C71.4485 26.0688 70.8389 26.2326 70.4298 26.3648C70.2009 26.4384 69.9749 26.5213 69.7525 26.6133L69.7238 26.6265L26.1787 43.9568L26.1735 43.9594C26.0262 44.0144 25.881 44.0753 25.7384 44.1418C25.3931 44.2993 25.0619 44.4868 24.7484 44.7022C24.157 45.112 22.7944 46.2381 23.0263 48.099C23.2087 49.5793 24.2091 50.4913 24.8213 50.9301C25.1548 51.1707 25.4727 51.3425 25.7071 51.4562C25.8114 51.509 26.0354 51.5989 26.1318 51.6412L26.1579 51.6491L34.4141 54.467ZM71.2479 30.2744H71.2427C71.2203 30.2845 71.1977 30.2942 71.175 30.3035L27.5778 47.6576C27.5553 47.6668 27.5327 47.6756 27.51 47.684L27.484 47.6919C27.4043 47.7237 27.3261 47.759 27.2495 47.7977C27.322 47.8398 27.3968 47.8778 27.4735 47.9113L35.6594 50.7081C35.8057 50.7581 35.9456 50.8255 36.0763 50.909L63.1115 34.8502L63.1376 34.837C63.2426 34.7722 63.3504 34.7123 63.4607 34.6572C63.6482 34.5594 63.9478 34.4167 64.2865 34.3109C64.521 34.2369 65.2166 34.0281 65.967 34.2739C66.3649 34.4012 66.7196 34.6395 66.9905 34.9615C67.2614 35.2836 67.4376 35.6765 67.4989 36.0953C67.5959 36.462 67.5986 36.8479 67.5067 37.2161C67.3243 37.943 66.8241 38.5087 66.3682 38.9422C65.9774 39.3123 60.9075 44.2714 55.9079 49.167L49.1002 55.8284L47.8887 57.0179L63.1871 68.9186C63.3936 69.0065 63.6178 69.0428 63.841 69.0244C63.9534 69.0089 64.0592 68.9612 64.1459 68.8869C64.2515 68.7964 64.3421 68.6893 64.4142 68.5697L64.4194 68.567L71.9487 30.0445C71.7116 30.1023 71.479 30.1783 71.2531 30.2718L71.2479 30.2744ZM49.2044 63.037L46.151 60.6632L45.4111 65.4346L49.2044 63.037ZM43.3503 55.9526L46.3855 52.9788L53.1931 46.3121L55.7281 43.8325L38.7415 53.9225L38.8327 54.1392C39.904 56.7071 40.9635 59.2801 42.0112 61.858L42.7485 57.0999C42.8152 56.6586 43.0273 56.2559 43.3503 55.9526Z" fill="white"/>
</svg>
