<svg width="2022" height="227" viewBox="0 0 2022 227" fill="none" xmlns="http://www.w3.org/2000/svg">
<path d="M39.7635 28.4256C28.2552 37.6545 18.6952 35.9495 4.03596 35.9495V102.311C4.03596 105.823 3.48024 107.87 6.73804 109.684C12.3025 112.783 11.294 112.51 20.8489 114.499C60.7489 122.806 101.105 129.151 141.242 136.168C206.576 147.592 273.988 159.279 340.295 162.653C480.971 169.811 622.352 168.672 763.171 168.672C967.951 168.672 1172.54 171.743 1377.29 173.939C1493.95 175.189 1608.54 157.006 1724.66 149.712C1792.9 145.425 1861.49 139.977 1929.12 129.547C1954.84 125.581 1986.48 122.074 2009.88 109.684C2024.16 102.125 2008.98 55.9739 2008.98 42.8716C2008.98 20.8063 1973.67 14.7527 1957.94 17.5911C1915.37 25.2728 1875.47 14.2806 1832.74 14.2806H1777.8C1771.05 14.2806 1760.14 12.2751 1753.63 15.7854C1739.03 23.6678 1725.47 22.8095 1710.1 26.7703C1673.31 36.2531 1636.59 29.7886 1599.16 24.5131C1557.74 18.6742 1516.82 16.9734 1475.17 13.0768C1458.06 11.4762 1433.36 5.11925 1415.87 9.01383C1404.46 11.5555 1393.03 14.9458 1382.55 20.9017C1361.22 33.0145 1334.78 31.1656 1310.94 34.4447C1266.76 40.5235 1218.61 30.8384 1174.04 30.5323C1162.6 30.4538 1135.54 36.8396 1127.5 25.1151C1123.78 19.6904 1109.79 16.2313 1103.93 12.9263C1080.7 -0.175126 1058.12 4.10587 1032.63 7.35857C1016.98 9.35527 1008.29 15.1644 992.998 19.0959C980.516 22.3041 968.658 21.514 956.069 23.0084L955.351 23.0936C933.679 25.6654 908.313 28.6755 888.517 38.0562C881.358 41.4489 877.41 48.0579 871.404 51.5993C865.189 55.264 836.472 71.6364 832.224 67.851C824.233 60.7308 824.657 46.8448 815.261 38.9591C802.089 27.9044 783.152 21.308 766.173 19.9988C730.813 17.2722 694.557 14.2806 659.141 14.2806C651.326 14.2806 597.229 13.6241 599.845 18.3435C604.981 27.6113 610.137 34.8304 595.642 35.7991C580.855 36.7872 566.179 38.6582 551.358 38.6582C528.718 38.6582 542.328 21.2942 525.538 14.8825C513.465 10.2724 492.009 13.6292 480.803 16.8387C476.872 17.9645 473.695 21.1964 469.995 22.256C452.903 27.1513 430.988 16.3756 414.752 24.5131C409.94 26.925 406.066 30.49 401.242 32.639C391.379 37.0329 376.252 31.0671 366.115 30.5323C330.824 28.6704 289.623 15.4673 257.431 38.0562C252.979 41.1806 220.527 33.2409 210.595 33.2409C195.893 33.2409 188.137 25.1151 173.066 25.1151C157.724 25.1151 139.673 22.4776 125.63 29.9304C109.348 38.5711 90.1241 27.8237 72.939 27.8237C66.1295 27.8237 44.9771 24.2446 39.7635 28.4256Z" fill="#94A5FF" stroke="#A0ADF5" stroke-width="7" stroke-linecap="round"/>
<path d="M35.9283 44.2016C24.367 53.4507 14.763 51.742 0.0361251 51.742V118.248C0.0361251 121.768 -0.522154 123.819 2.75066 125.638C8.34075 128.743 7.32761 128.47 16.9266 130.464C57.0105 138.789 97.5525 145.147 137.874 152.18C203.51 163.628 271.232 175.341 337.845 178.722C479.17 185.896 621.202 184.754 762.67 184.754C968.394 184.754 1173.93 187.833 1379.62 190.033C1496.82 191.286 1611.94 173.063 1728.59 165.753C1797.15 161.457 1866.05 155.997 1933.99 145.544C1959.83 141.569 1991.62 138.055 2015.13 125.638C2029.47 118.062 2014.22 71.8101 2014.22 58.6792C2014.22 36.5657 1978.75 30.4989 1962.95 33.3435C1920.18 41.042 1880.1 30.0257 1837.17 30.0257H1781.98C1775.2 30.0257 1764.23 28.0158 1757.7 31.5338C1743.03 39.4334 1729.4 38.5733 1713.96 42.5427C1677.01 52.0462 1640.11 45.5676 1602.52 40.2806C1560.91 34.4289 1519.79 32.7244 1477.95 28.8193C1460.76 27.2151 1435.95 20.8443 1418.38 24.7474C1406.92 27.2947 1395.44 30.6924 1384.9 36.6612C1363.48 48.8006 1336.91 46.9476 1312.97 50.2339C1268.58 56.3259 1220.21 46.6197 1175.43 46.3129C1163.94 46.2342 1136.76 52.634 1128.68 40.8839C1124.94 35.4474 1110.89 31.9807 1105 28.6684C1081.66 15.5384 1058.98 19.8288 1033.37 23.0886C1017.65 25.0896 1008.92 30.9114 993.557 34.8516C981.017 38.0668 969.104 37.275 956.458 38.7726L955.736 38.858C933.964 41.4354 908.482 44.452 888.594 53.8533C881.402 57.2534 877.436 63.8769 871.402 67.426C865.159 71.0987 836.309 87.5068 832.042 83.7132C824.014 76.5774 824.44 62.6611 815 54.7582C801.767 43.6793 782.743 37.0685 765.686 35.7564C730.163 33.0238 693.74 30.0257 658.16 30.0257C650.31 30.0257 595.964 29.3678 598.591 34.0975C603.751 43.3856 608.931 50.6204 594.369 51.5912C579.514 52.5815 564.771 54.4565 549.881 54.4565C527.137 54.4565 540.809 37.0547 523.942 30.6289C511.814 26.0087 490.259 29.3729 479.001 32.5894C475.052 33.7177 471.86 36.9566 468.143 38.0185C450.972 42.9246 428.956 32.1253 412.646 40.2806C407.811 42.6978 403.919 46.2706 399.073 48.4242C389.165 52.8278 373.968 46.8489 363.784 46.3129C328.33 44.447 286.94 31.215 254.599 53.8533C250.126 56.9845 217.525 49.0275 207.547 49.0275C192.778 49.0275 184.986 40.8839 169.845 40.8839C154.433 40.8839 136.299 38.2406 122.19 45.7097C105.833 54.3693 86.5211 43.5984 69.2568 43.5984C62.4159 43.5984 41.166 40.0115 35.9283 44.2016Z" fill="#394275"/>
<rect y="109" width="2021" height="118" fill="#394275"/>
</svg>
