<svg width="113" height="112" viewBox="0 0 113 112" fill="none" xmlns="http://www.w3.org/2000/svg">
<circle cx="55" cy="55" r="52.5" stroke="white" stroke-width="5"/>
<path d="M13 41C14.8333 34.0692 22.6 18.566 39 12" stroke="white" stroke-width="3"/>
<path d="M53.8924 106.387L49.0673 99.6922C48.4687 98.8615 49.357 97.7747 50.2902 98.1961L68.1925 106.281C69.1511 106.713 70.0424 105.563 69.3837 104.743L58.9865 91.7994C58.3084 90.9553 59.2684 89.7859 60.2285 90.2865L80.6364 100.928C81.6683 101.466 82.6318 100.106 81.7818 99.3112L64.5431 83.1914C63.7001 82.4031 64.6418 81.0501 65.6738 81.5669L88.485 92.9895C89.4409 93.4682 90.3801 92.3148 89.7177 91.4757L80.8699 80.2685C80.1817 79.3969 81.2147 78.2207 82.1679 78.7905L94.2571 86.0177C95.1517 86.5525 96.1654 85.5334 95.6258 84.6417L90.257 75.7692C89.792 75.0007 90.4974 74.0563 91.3663 74.2843L102.562 77.221C103.617 77.4977 104.29 76.1262 103.425 75.4612L91.5805 66.3471C90.6955 65.6662 91.4229 64.267 92.4887 64.6001L103.997 68.1976C105.014 68.5156 105.757 67.2341 104.975 66.5097L96.4548 58.6128C95.7522 57.9616 96.2789 56.7905 97.2322 56.8841L105.651 57.7104C106.667 57.8102 107.162 56.5009 106.333 55.9038L89.919 44.081C88.9823 43.4064 89.7445 41.9443 90.834 42.3258L105.143 47.3368C106.189 47.7032 106.966 46.3485 106.121 45.6309L89.3602 31.3927C88.5243 30.6826 89.276 29.3392 90.3184 29.68L102 33.5" stroke="white" stroke-width="2"/>
<g clip-path="url(#clip0_639_1323)">
<path fill-rule="evenodd" clip-rule="evenodd" d="M57.5331 41.7981C59.4996 40.8219 62.0018 39.3849 64.507 37.416C65.0352 38.5081 65.0931 39.461 64.8209 40.2305C64.6281 40.7728 64.2646 41.2445 63.7868 41.6197C63.2693 42.0253 62.623 42.3205 61.9086 42.4801C60.553 42.7841 58.9703 42.6066 57.5331 41.7981ZM57.874 51.8004L60.4771 53.2974C55.162 56.2631 53.7171 61.7701 52.0006 67.134C50.2844 61.7701 48.8393 56.2631 43.5244 53.2974L46.1275 51.8004C46.3793 51.7057 46.5946 51.534 46.7424 51.31C46.8902 51.086 46.963 50.8212 46.9504 50.5535C46.7119 45.5301 48.0743 43.3087 49.912 41.9139C50.5711 41.4143 51.2907 41.1634 52.0006 41.1634C52.7106 41.1634 53.4301 41.4143 54.0895 41.9139C55.9272 43.3087 57.2896 45.5301 57.0511 50.5535C57.0385 50.8212 57.1113 51.086 57.2591 51.31C57.4069 51.534 57.6222 51.7057 57.874 51.8004ZM52.0006 19C55.0096 19.0804 58.0261 19.662 60.6441 20.7933C62.4569 21.5777 64.1485 22.6139 65.6802 23.8529C66.3719 24.4123 66.9415 24.9526 67.5689 25.5747C69.2611 25.633 71.7342 23.7614 72.8824 22.0101C70.9064 28.4592 61.8897 36.075 55.6474 38.9891C55.6448 38.9881 55.6431 38.9866 55.6411 38.9853C54.5209 38.1337 53.2609 37.7078 52.0006 37.7078C50.7404 37.7078 49.4806 38.1337 48.3604 38.9853C48.3584 38.9863 48.3567 38.9883 48.3541 38.9891C42.1116 36.075 33.0951 28.4592 31.1191 22.0101C32.2671 23.7614 34.7401 25.633 36.4324 25.5747C37.06 24.9529 37.6296 24.4123 38.3211 23.8529C39.8528 22.6139 41.5444 21.5777 43.3572 20.7933C45.9754 19.662 48.9919 19.0804 52.0006 19ZM46.4682 41.7981C44.5019 40.8219 41.9995 39.3849 39.4945 37.416C38.9663 38.5081 38.9084 39.461 39.1804 40.2305C39.3734 40.7728 39.7369 41.2445 40.2145 41.6197C40.7322 42.0253 41.3785 42.3205 42.0929 42.4801C43.4485 42.7841 45.031 42.6066 46.4682 41.7981Z" fill="white"/>
<path fill-rule="evenodd" clip-rule="evenodd" d="M67.2501 35.0026C68.6292 33.617 69.8444 32.0834 70.8216 30.7148L71.3179 31.6448C72.9156 34.8271 73.7457 37.9965 73.7457 41.5635L73.7423 47.2236L73.7723 50.1578C73.888 57.3612 75.4536 64.6493 79 71.319L71.5799 65.3623L66.3297 73.8442L60.814 68.6749L52 82.9147L43.186 68.6752L37.6705 73.8444L32.4203 65.3625L25 71.3192C28.5464 64.6496 30.112 57.3615 30.2279 50.158L30.2579 47.2239L30.2545 41.5637C30.2545 37.9966 31.0844 34.8271 32.6826 31.645L33.1786 30.7151C34.1558 32.0836 35.3708 33.617 36.7501 35.0028L36.3194 35.8935C35.4826 37.6234 35.2056 39.5577 35.8574 41.3973C36.2776 42.5821 37.0446 43.5983 38.0333 44.3739C38.9933 45.1272 40.1294 45.635 41.3189 45.9016C42.0938 46.0753 42.8832 46.1467 43.6675 46.1224C43.4845 47.1552 43.4046 48.2263 43.3994 49.3177L36.4 53.3425L41.8013 56.3567C42.233 56.5976 42.644 56.8737 43.03 57.182C47.4831 61.1624 50.1604 72.9378 52.0002 78.6895C53.8403 72.9378 56.5174 61.1624 60.9706 57.182C61.3566 56.8736 61.7676 56.5976 62.1994 56.3567L67.6006 53.3425L60.601 49.3177C60.5959 48.2263 60.5159 47.1552 60.3329 46.1224C61.1172 46.1467 61.9066 46.0753 62.6815 45.9016C63.871 45.635 65.0074 45.1272 65.9671 44.3739C66.9556 43.5983 67.7228 42.5821 68.1428 41.3973C68.7949 39.5577 68.5176 37.6236 67.681 35.8935L67.2503 35.0028L67.2501 35.0026Z" fill="white"/>
</g>
<defs>
<clipPath id="clip0_639_1323">
<rect width="54" height="64" fill="white" transform="translate(25 19)"/>
</clipPath>
</defs>
</svg>
