<svg width="1104" height="366" viewBox="0 0 1104 366" fill="none" xmlns="http://www.w3.org/2000/svg">
<path d="M14 201.07C103.728 134.01 197.585 44.6216 308.985 14.6938C335.356 7.60913 324.114 56.8297 318.5 69.1964C283.959 145.29 209.953 191.199 169.676 262.052C165.179 269.963 159.774 282.317 161.492 291.78C162.054 294.876 166.306 296.632 169.295 295.592C186.519 289.599 213.542 270.127 224.486 262.433C259.174 238.043 313.059 196.928 346.286 171.722C381.681 144.872 417.512 118.395 452.29 90.7306C468.645 77.7211 485.261 58.1496 504.245 48.8056C541.595 30.4225 590.56 26.1279 631.755 26.1279C665.072 26.1279 673.572 24.6311 658.399 58.5245C620.989 142.09 560.558 209.793 511.097 285.682C508.075 290.319 503.945 303.628 513.38 305.12C523.198 306.672 537.496 295.064 543.83 290.637C573.469 269.921 600.743 246.127 630.994 226.225C732.389 159.516 838.595 102.25 955.096 67.1001C986.629 57.5862 1018.28 49.2357 1050.82 44.0413C1055.74 43.2572 1082.71 36.176 1088.12 41.3734C1091.74 44.8458 1089.08 59.8251 1088.7 62.5265C1084.04 95.1262 1067.66 124.462 1049.11 151.141C995.506 228.24 922.17 289.287 853.279 352" stroke="#A0ADF5" stroke-width="27" stroke-linecap="round"/>
<path d="M214.168 103.824C266.007 103.824 174.609 107.395 226.542 107.122C263.024 97.5789 299.441 94.6982 337.904 93.5646C363.352 92.8145 390.195 91.2522 415.415 88.16C422.455 87.2967 435.688 87.5761 441.913 84.8622C445.939 83.1071 450.66 84.8515 454.754 83.1218C460.222 80.8113 467.629 80.1013 473.781 79.4576C499.181 76.8 528.101 78.2813 553.51 79.9157C587.667 82.1127 623.013 83.3819 657.285 84.0378C669.601 84.2735 683.051 86.6597 695.223 88.2516C710.621 90.2655 725.693 89.9118 741.099 91.3661C761.262 93.2696 782.563 93.9856 802.267 97.9615C814.669 100.464 827.206 104.129 839.971 105.381C846.622 106.034 853.345 107.958 859.816 109.504C863.806 110.457 867.772 113.363 871.606 113.717C886.254 115.07 886.879 144.752 889.466 152.466C892.222 160.685 891.482 170.6 893.085 179.122C895.272 190.756 893.471 201.007 888.415 211.916C877.95 234.501 847.083 247.672 819.543 255.153C798.886 260.764 776.037 260.911 756.041 268.344C742.991 273.195 719.548 275.306 705.612 275.306C660.638 275.306 614.892 277.603 569.735 278.512C502.207 279.871 433.692 278.567 366.621 272.375C336.568 269.6 307.088 268.71 276.853 268.71C257.56 268.71 236.731 268.259 217.67 266.237C210.417 265.468 207.313 264.83 201.327 262.481C190.475 258.223 161.032 251.238 159.304 239.031C158.372 232.448 155.101 226.883 155.101 219.886C155.101 209.306 153 199.157 153 188.649C153 171.989 156.783 158.4 161.638 142.206C164.949 131.165 168.446 124.29 180.782 118.298C192.001 112.848 199.767 103.824 214.168 103.824Z" fill="#394275"/>
<path d="M226.542 107.122C198.716 107.122 254.417 106.975 226.542 107.122ZM226.542 107.122C174.609 107.395 266.007 103.824 214.168 103.824C199.767 103.824 192.001 112.848 180.782 118.298C168.446 124.29 164.949 131.165 161.638 142.206C156.783 158.4 153 171.989 153 188.649C153 199.157 155.101 209.306 155.101 219.886C155.101 226.883 158.372 232.448 159.304 239.031C161.032 251.238 190.475 258.223 201.327 262.481C207.313 264.83 210.417 265.468 217.67 266.237C236.731 268.259 257.56 268.71 276.853 268.71C307.088 268.71 336.568 269.6 366.621 272.375C433.692 278.567 502.207 279.871 569.735 278.512C614.892 277.603 660.638 275.306 705.612 275.306C719.548 275.306 742.991 273.195 756.041 268.344C776.037 260.911 798.886 260.764 819.543 255.153C847.083 247.672 877.95 234.501 888.415 211.916C893.471 201.007 895.272 190.756 893.085 179.122C891.482 170.6 892.222 160.685 889.466 152.466C886.879 144.752 886.254 115.07 871.606 113.717C867.772 113.363 863.806 110.457 859.816 109.504C853.345 107.958 846.622 106.034 839.971 105.381C827.206 104.129 814.669 100.464 802.267 97.9616C782.563 93.9856 761.262 93.2696 741.099 91.3661C725.693 89.9118 710.621 90.2655 695.223 88.2516C683.051 86.6597 669.601 84.2735 657.285 84.0378C623.013 83.3819 587.667 82.1127 553.51 79.9157C528.101 78.2813 499.181 76.8 473.781 79.4576C467.629 80.1013 460.222 80.8113 454.754 83.1218C450.66 84.8515 445.939 83.1071 441.913 84.8622C435.688 87.5761 422.455 87.2967 415.415 88.16C390.195 91.2522 363.352 92.8145 337.904 93.5646C299.441 94.6982 263.024 97.5789 226.542 107.122Z" stroke="#394275" stroke-width="13" stroke-linecap="round"/>
<path d="M232.168 81.8242C284.007 81.8242 192.609 85.3954 244.542 85.1219C281.024 75.5789 317.441 72.6982 355.904 71.5646C381.352 70.8145 408.195 69.2522 433.415 66.16C440.455 65.2967 453.688 65.5761 459.913 62.8622C463.939 61.1071 468.66 62.8515 472.754 61.1218C478.222 58.8113 485.629 58.1013 491.781 57.4576C517.181 54.8 546.101 56.2813 571.51 57.9157C605.667 60.1127 641.013 61.3819 675.285 62.0378C687.601 62.2735 701.051 64.6597 713.223 66.2516C728.621 68.2655 743.693 67.9118 759.099 69.3661C779.262 71.2696 800.563 71.9856 820.267 75.9615C832.669 78.4642 845.206 82.1293 857.971 83.3814C864.622 84.0338 871.345 85.9581 877.816 87.5036C881.806 88.4566 885.772 91.3634 889.606 91.7174C904.254 93.0697 904.879 122.752 907.466 130.466C910.222 138.685 909.482 148.6 911.085 157.122C913.272 168.756 911.471 179.007 906.415 189.916C895.95 212.501 865.083 225.672 837.543 233.153C816.886 238.764 794.037 238.911 774.041 246.344C760.991 251.195 737.548 253.306 723.612 253.306C678.638 253.306 632.892 255.603 587.735 256.512C520.207 257.871 451.692 256.567 384.621 250.375C354.568 247.6 325.088 246.71 294.853 246.71C275.56 246.71 254.731 246.259 235.67 244.237C228.417 243.468 225.313 242.83 219.327 240.481C208.475 236.223 179.032 229.238 177.304 217.031C176.372 210.448 173.101 204.883 173.101 197.886C173.101 187.306 171 177.157 171 166.649C171 149.989 174.783 136.4 179.638 120.206C182.949 109.165 186.446 102.29 198.782 96.2975C210.001 90.8476 217.767 81.8242 232.168 81.8242Z" fill="#D6DAF0"/>
<path d="M244.542 85.1219C216.716 85.1219 272.417 84.9751 244.542 85.1219ZM244.542 85.1219C192.609 85.3954 284.007 81.8242 232.168 81.8242C217.767 81.8242 210.001 90.8476 198.782 96.2975C186.446 102.29 182.949 109.165 179.638 120.206C174.783 136.4 171 149.989 171 166.649C171 177.157 173.101 187.306 173.101 197.886C173.101 204.883 176.372 210.448 177.304 217.031C179.032 229.238 208.475 236.223 219.327 240.481C225.313 242.83 228.417 243.468 235.67 244.237C254.731 246.259 275.56 246.71 294.853 246.71C325.088 246.71 354.568 247.6 384.621 250.375C451.692 256.567 520.207 257.871 587.735 256.512C632.892 255.603 678.638 253.306 723.612 253.306C737.548 253.306 760.991 251.195 774.041 246.344C794.037 238.911 816.886 238.764 837.543 233.153C865.083 225.672 895.95 212.501 906.415 189.916C911.471 179.007 913.272 168.756 911.085 157.122C909.482 148.6 910.222 138.685 907.466 130.466C904.879 122.752 904.254 93.0697 889.606 91.7174C885.772 91.3634 881.806 88.4566 877.816 87.5036C871.345 85.9581 864.622 84.0338 857.971 83.3814C845.206 82.1293 832.669 78.4642 820.267 75.9616C800.563 71.9856 779.262 71.2696 759.099 69.3661C743.693 67.9118 728.621 68.2655 713.223 66.2516C701.051 64.6597 687.601 62.2735 675.285 62.0378C641.013 61.3819 605.667 60.1127 571.51 57.9157C546.101 56.2813 517.181 54.8 491.781 57.4576C485.629 58.1013 478.222 58.8113 472.754 61.1218C468.66 62.8515 463.939 61.1071 459.913 62.8622C453.688 65.5761 440.455 65.2967 433.415 66.16C408.195 69.2522 381.352 70.8145 355.904 71.5646C317.441 72.6982 281.024 75.5789 244.542 85.1219Z" stroke="#394275" stroke-width="13" stroke-linecap="round"/>
<path d="M297.24 106.04L345.24 103C346.627 103 347.96 104.333 349.24 107C349.24 111.053 344.547 113.08 335.16 113.08L307.16 114.68L306.52 115C309.187 132.387 310.52 165.4 310.52 214.04C309.987 218.733 308.28 221.08 305.4 221.08C302.627 221.08 301.027 218.947 300.6 214.68V177.56C300.6 152.813 299.48 132.173 297.24 115.64C278.147 117.453 268.6 119.587 268.6 122.04L267.16 122.68C263.853 121.72 262.2 120.013 262.2 117.56C262.2 111.693 273.88 107.853 297.24 106.04ZM359.609 146.68C367.502 146.68 373.475 152.547 377.529 164.28L378.169 167.64C378.169 179.053 372.835 190.733 362.169 202.68C357.902 206.627 353.582 208.6 349.209 208.6C342.809 208.6 338.275 204.92 335.609 197.56C334.649 194.147 334.169 191.16 334.169 188.6V186.68C334.169 169.827 340.302 157.027 352.569 148.28C354.702 147.213 357.049 146.68 359.609 146.68ZM343.609 188.28C343.609 195.533 345.475 199.16 349.209 199.16C356.995 199.16 363.449 189.187 368.569 169.24V166.2C366.755 159.587 363.395 156.28 358.489 156.28C356.569 156.28 355.609 157.613 355.609 160.28C355.609 162.093 353.475 163.533 349.209 164.6C345.475 170.893 343.609 178.787 343.609 188.28ZM393.419 122.36H394.379C395.765 122.36 397.099 123.533 398.379 125.88L397.739 136.76V142.84L398.379 170.84L398.859 172.44H399.339C403.925 168.173 407.925 160.653 411.339 149.88L414.859 148.76C417.845 149.187 419.339 150.52 419.339 152.76C419.339 159.693 414.379 169.027 404.459 180.76V181.88C417.579 197.133 426.219 204.76 430.379 204.76H431.339L435.339 202.36H436.779C439.019 202.36 440.672 203.853 441.739 206.84C441.739 210.253 437.952 212.6 430.379 213.88C422.805 213.88 412.939 206.2 400.779 190.84H399.339L399.819 199.48V207.8C399.179 211.107 397.525 212.76 394.859 212.76C391.872 212.12 390.379 210.467 390.379 207.8V206.84L389.739 188.44C388.565 188.44 387.765 186.787 387.339 183.48L389.419 179.48L388.459 143.48V136.44C388.459 127.053 390.112 122.36 393.419 122.36ZM460.44 149.56C464.707 149.667 471.907 157.133 482.04 171.96L482.36 174.68C482.36 177.667 475.053 179.96 460.44 181.56L459.96 182.04V182.68C462.2 192.28 464.547 197.08 467 197.08H468.92C472.333 197.08 477.507 193.4 484.44 186.04H485.4C487.533 186.04 489.187 187.587 490.36 190.68C490.36 193.24 485.88 197.667 476.92 203.96C474.573 205.347 471.747 206.36 468.44 207C459.8 207 453.773 198.893 450.36 182.68C445.453 181.933 443 179.907 443 176.6C443 174.253 444.813 172.707 448.44 171.96V172.6L450.04 171.96V167.96C450.04 155.693 453.507 149.56 460.44 149.56ZM461.4 161.08H459.96L459.32 167V171.96H459.96C465.933 171.747 468.92 171.107 468.92 170.04C466.147 165.88 463.64 162.893 461.4 161.08ZM517.309 153.08C526.375 153.827 530.909 158.253 530.909 166.36L531.229 168.44L530.909 193.4C530.909 196.28 532.562 200.173 535.869 205.08V205.4C535.015 208.493 533.469 210.04 531.229 210.04C524.615 207.267 521.309 201.4 521.309 192.44V190.36L520.829 190.04L521.309 189.4V189.08L521.789 167C521.789 163.907 520.455 162.36 517.789 162.36H515.869C510.535 164.493 507.869 176.173 507.869 197.4C507.869 204.76 506.002 208.44 502.269 208.44C499.389 208.44 497.895 206.627 497.789 203V187C497.789 166.307 499.602 155.96 503.229 155.96L504.829 155.48L508.189 155.96C511.069 154.04 514.109 153.08 517.309 153.08ZM566.484 146.68C574.377 146.68 580.35 152.547 584.404 164.28L585.044 167.64C585.044 179.053 579.71 190.733 569.044 202.68C564.777 206.627 560.457 208.6 556.084 208.6C549.684 208.6 545.15 204.92 542.484 197.56C541.524 194.147 541.044 191.16 541.044 188.6V186.68C541.044 169.827 547.177 157.027 559.444 148.28C561.577 147.213 563.924 146.68 566.484 146.68ZM550.484 188.28C550.484 195.533 552.35 199.16 556.084 199.16C563.87 199.16 570.324 189.187 575.444 169.24V166.2C573.63 159.587 570.27 156.28 565.364 156.28C563.444 156.28 562.484 157.613 562.484 160.28C562.484 162.093 560.35 163.533 556.084 164.6C552.35 170.893 550.484 178.787 550.484 188.28ZM594.694 151C595.44 148.333 597.147 147 599.814 147C602.48 147 604.24 149.667 605.094 155H605.734L613.094 153.4C616.507 153.4 619.814 156.6 623.014 163H623.654C628.347 155.64 633.147 151.96 638.054 151.96C648.507 153.88 653.734 160.707 653.734 172.44L654.054 178.04L652.614 210.36V213.4C652.614 216.067 650.96 217.613 647.654 218.04C644.347 218.04 642.694 214.147 642.694 206.36L644.614 177.4C644.614 166.733 642.107 161.4 637.094 161.4C634.214 161.4 630.747 168.387 626.694 182.36C624.667 198.36 623.014 206.36 621.734 206.36C619.92 206.36 619.014 206.733 619.014 207.48C615.707 207.053 614.054 205.347 614.054 202.36L616.134 183C615.814 169.667 614.48 163 612.134 163H611.654C608.987 165.027 607.654 169.027 607.654 175V183.48L607.014 207.96C606.267 210.627 604.614 211.96 602.054 211.96C599.814 211.96 598.374 210.093 597.734 206.36L597.094 187.48L598.054 171.96C597.414 163.96 596.294 156.973 594.694 151ZM664.835 123.64C668.888 124.493 670.915 126.307 670.915 129.08C669.848 132.067 668.142 133.56 665.795 133.56C661.848 132.813 659.875 130.84 659.875 127.64C660.942 124.973 662.595 123.64 664.835 123.64ZM670.915 146.04C672.622 146.04 674.062 147.587 675.235 150.68L673.795 162.04V169.56C673.795 178.307 675.288 189.773 678.275 203.96C677.208 205.987 675.395 207 672.835 207C668.462 207 665.582 194.2 664.195 168.6V163C664.195 151.693 666.435 146.04 670.915 146.04ZM702.829 152.76L709.389 151.8C712.055 151.8 713.549 153.453 713.869 156.76C713.869 159.64 710.402 161.507 703.469 162.36C699.095 165.773 696.909 170.147 696.909 175.48V180.76C699.042 192.493 702.669 198.36 707.789 198.36H709.389C712.375 198.36 716.855 195.533 722.829 189.88H723.789C725.922 189.88 727.629 191.373 728.909 194.36C727.415 198.947 722.615 203.107 714.509 206.84C713.015 207.48 711.149 207.8 708.909 207.8C697.922 207.8 690.775 199.16 687.469 181.88V178.36C687.469 165.88 692.589 157.347 702.829 152.76ZM769.138 142.2C772.018 142.2 773.991 147.053 775.057 156.76C773.991 159.427 772.231 160.76 769.778 160.76C768.071 160.44 766.364 158.467 764.658 154.84L761.778 153.88C756.764 153.88 752.231 157.187 748.178 163.8V165.24C748.178 166.84 755.698 169.507 770.738 173.24C777.031 176.973 780.178 181.507 780.178 186.84C780.178 195.587 773.138 203.053 759.058 209.24L753.138 210.2C744.178 209.24 739.698 204.76 739.698 196.76V196.28C739.698 193.72 741.351 192.227 744.658 191.8C747.218 191.8 748.924 194.467 749.778 199.8L751.058 200.76H753.778C759.858 200.76 765.511 196.6 770.738 188.28V186.2C770.738 183 763.751 180.013 749.778 177.24C742.418 174.253 738.738 170.093 738.738 164.76C738.738 157.827 744.551 151.32 756.178 145.24C761.298 144.6 765.618 143.587 769.138 142.2Z" fill="#393D58"/>
</svg>
